<?xml version="1.0" encoding="iso-8859-1"?>
<!-- Generator: Adobe Illustrator 19.0.0, SVG Export Plug-In . SVG Version: 6.00 Build 0)  -->
<svg version="1.1" id="Capa_1" xmlns="http://www.w3.org/2000/svg" xmlns:xlink="http://www.w3.org/1999/xlink" x="0px" y="0px"
	 viewBox="0 0 512 512" style="enable-background:new 0 0 512 512;" xml:space="preserve">
<g>
	<g>
		<path d="M507.333,17.317c0,0,0-0.001-0.001-0.001c-4.063-5.082-10.124-7.996-16.63-7.996H21.299
			c-13.64,0-23.776,12.654-20.768,25.982c36.389,157.697,33.089,154.462,38.64,161.434c-2.915,3.443-4.683,7.888-4.683,12.743
			v38.845c0,4.143,3.357,7.5,7.5,7.5s7.5-3.357,7.5-7.5v-38.845c0-2.579,2.179-4.758,4.758-4.758c14.227,0,28.8,0,44.953,0
			c0.723,8.424,7.052,15.663,15.548,17.362c2.941,0.588-10.423,0.381,220.754,0.381c4.143,0,7.5-3.357,7.5-7.5s-3.357-7.5-7.5-7.5
			c-8.547,0-201.537,0-216.94,0c-3.44,0-5.621-3.794-3.75-6.777c0.86-1.372,2.334-2.093,3.75-2.093
			c294.35,0.036,276.012-0.573,277.909,1.218c2.921,2.758,0.965,7.652-3.035,7.652h-22.934c-4.143,0-7.5,3.357-7.5,7.5
			s3.357,7.5,7.5,7.5h22.934c10.145,0,18.488-7.817,19.351-17.742c15.005,0,29.905,0,44.966,0c2.579,0,4.758,2.179,4.758,4.758
			v273.44c0,2.579-2.179,4.759-4.758,4.759h-18.602c-4.143,0-7.5,3.357-7.5,7.5s3.357,7.5,7.5,7.5h18.602
			c10.895,0,19.759-8.863,19.759-19.76V209.478c0-4.855-1.767-9.299-4.683-12.743c5.753-7.226,2.003-2.665,38.64-161.435
			C512.904,28.954,511.396,22.4,507.333,17.317z M462.331,184.815c-0.652,2.889-3.176,4.905-6.137,4.905h-48.598
			c-3.459-3.679-8.609-6.129-14.158-6.129c-297.319,0.039-280.882-2.541-289.032,6.129h-48.6c-2.96,0-5.483-2.017-6.136-4.905
			C14.679,25.879,12.797,31.178,16.384,26.684c3.606-4.509-24.801-1.455,474.318-2.363c1.922,0,3.713,0.861,4.913,2.362
			C499.089,31.031,497.602,24.614,462.331,184.815z"/>
	</g>
</g>
<g>
	<g>
		<path d="M430.407,232.691c-190.338,0-148.013,0-346.906,0c-8.353,0-15.148,6.795-15.148,15.147v17.985v25.113v25.114v25.114
			v15.792c0,10.248,8.337,18.586,18.586,18.586c16.532,0,324.381,0,342.881,0c8.388,0.002,15.212-6.822,15.212-15.211
			c0-26.146,0-87.971,0-113.016C445.032,239.252,438.47,232.691,430.407,232.691z M412.152,247.692h17.88v10.632h-17.88V247.692z
			 M379.272,247.692h17.88v10.632h-17.88V247.692z M379.272,273.324c16.149,0,34.61,0,50.76,0v10.112c-18.955,0-32.201,0-50.76,0
			V273.324z M395.712,308.551v-10.113h34.319v10.113H395.712z M430.031,323.552v10.113c-16.149,0-34.61,0-50.76,0v-10.113
			C397.612,323.552,410.948,323.552,430.031,323.552z M346.393,247.692h17.88v10.632h-17.88V247.692z M346.393,273.324h17.88v10.112
			c-6.253,0-11.626,0-17.88,0V273.324z M231.313,308.55v-10.113c6.253,0,11.626,0,17.88,0v10.113
			C242.939,308.55,237.566,308.55,231.313,308.55z M232.753,323.552v10.113h-17.88v-10.113
			C221.127,323.552,226.5,323.552,232.753,323.552z M247.753,323.552c6.253,0,11.626,0,17.88,0v10.113h-17.88V323.552z
			 M264.193,308.55v-10.113c6.253,0,11.626,0,17.879,0v10.113C275.818,308.55,270.446,308.55,264.193,308.55z M280.634,323.552
			c6.252,0,11.625,0,17.879,0v10.113h-17.879V323.552z M297.072,308.55v-10.113c6.253,0,11.626,0,17.88,0v10.113
			C308.698,308.55,303.325,308.55,297.072,308.55z M313.513,323.552c6.253,0,11.626,0,17.88,0v10.113h-17.88V323.552z
			 M329.952,308.551v-10.113c6.253,0,11.626,0,17.88,0v10.113C341.578,308.551,336.205,308.551,329.952,308.551z M313.513,247.692
			h17.88v10.632h-17.88V247.692z M313.513,273.324h17.88v10.112c-6.253,0-11.626,0-17.88,0V273.324z M280.634,247.692h17.879v10.632
			h-17.879V247.692z M280.634,273.324h17.879v10.112c-6.253,0-11.625,0-17.879,0V273.324z M247.753,247.692h17.88v10.632h-17.88
			V247.692z M247.753,273.324h17.88v10.112c-6.253,0-11.626,0-17.88,0V273.324z M214.873,247.692h17.88v10.632h-17.88V247.692z
			 M214.873,273.324h17.88v10.112h-8.939h-8.94V273.324z M216.313,298.437v10.113h-8.94h-8.939v-10.113h8.939H216.313z
			 M181.994,273.324h17.879v10.112h-8.939h-8.939V273.324z M199.873,323.552v10.113h-17.88v-10.113h8.939H199.873z M181.993,247.692
			h17.88v10.632h-17.88V247.692z M149.113,247.692h17.88v10.632h-17.88V247.692z M166.992,333.665h-17.879v-10.113h8.939h8.939
			V333.665z M149.114,283.437v-10.112h17.879v10.112h-8.939H149.114z M116.233,247.692h17.88v10.632h-17.88V247.692z
			 M116.234,273.324h17.879v10.112h-8.939h-8.939V273.324z M117.672,298.437v10.113H83.353v-10.113h25.38H117.672z M134.113,323.552
			v10.113c-16.149,0-34.61,0-50.76,0v-10.113C102.308,323.552,115.554,323.552,134.113,323.552z M83.353,283.437v-10.112h17.88
			v10.112H83.353z M83.502,247.692h17.731v10.632h-17.88C83.421,247.504,83.214,247.692,83.502,247.692z M101.233,360.543H86.938
			c-1.977,0-3.585-1.608-3.585-3.585v-8.292h17.88V360.543z M134.113,360.543L134.113,360.543h-17.88v-11.877h17.88V360.543z
			 M132.674,308.551v-10.113h8.939h8.939v10.113h-8.939H132.674z M166.993,360.543h-17.88v-11.877h17.88V360.543z M165.554,308.551
			v-10.113h8.939h8.939v10.113h-8.939H165.554z M331.392,360.543L331.392,360.543H181.993v-11.877c4.364,0,145.776,0,149.399,0
			V360.543z M364.271,360.543h-17.88v-11.877h17.88V360.543z M364.271,333.665h-17.88v-10.113c6.253,0,11.626,0,17.88,0V333.665z
			 M362.832,308.551v-10.113c6.253,0,11.626,0,17.88,0v10.113h-8.939H362.832z M397.151,360.543h-17.88v-11.877h17.88V360.543z
			 M429.819,360.543h-17.668v-11.877h17.88C429.936,360.557,430.23,360.543,429.819,360.543z"/>
	</g>
</g>
<g>
	<g>
		<path d="M317.643,383.9H192.316c-8.939,0-16.211,7.272-16.211,16.211v62.327c0,8.938,7.272,16.211,16.211,16.211h125.327
			c8.938,0,16.211-7.273,16.211-16.211v-62.327C333.854,391.173,326.582,383.9,317.643,383.9z M318.853,462.438
			c0,0.668-0.543,1.211-1.211,1.211H192.316c-2.346,0-0.67-0.298-1.211-63.538c0-0.668,0.543-1.211,1.211-1.211h125.326
			c0.668,0,1.211,0.543,1.211,1.211V462.438z"/>
	</g>
</g>
<g>
	<g>
		<path d="M479.612,49.7c-0.016-6.928-5.643-12.798-12.853-12.798c-16.309,0-402.471,0-421.514,0h-0.001
			c-8.232,0-14.35,7.637-12.533,15.682L58.573,167.12c1.332,5.898,6.486,10.018,12.534,10.018h369.787
			c6.048,0,11.202-4.12,12.534-10.018C480.625,46.163,479.618,52.451,479.612,49.7z M439.175,162.138H72.826L54.34,80.273h403.322
			L439.175,162.138z M461.048,65.273H50.953l-3.02-13.37h416.134L461.048,65.273z"/>
	</g>
</g>
<g>
	<g>
		<path d="M404.151,487.677H54.247c-2.579,0-4.758-2.18-4.758-4.759V283.325c0-4.143-3.357-7.5-7.5-7.5s-7.5,3.357-7.5,7.5v199.593
			c0,10.896,8.863,19.76,19.759,19.76h349.905c4.143,0,7.5-3.357,7.5-7.5C411.652,491.034,408.294,487.677,404.151,487.677z"/>
	</g>
</g>
<g>
</g>
<g>
</g>
<g>
</g>
<g>
</g>
<g>
</g>
<g>
</g>
<g>
</g>
<g>
</g>
<g>
</g>
<g>
</g>
<g>
</g>
<g>
</g>
<g>
</g>
<g>
</g>
<g>
</g>
</svg>
